<?xml version="1.0" standalone="no"?><!DOCTYPE svg PUBLIC "-//W3C//DTD SVG 1.1//EN" "http://www.w3.org/Graphics/SVG/1.1/DTD/svg11.dtd"><svg t="1649838358270" class="icon" viewBox="0 0 1024 1024" version="1.1" xmlns="http://www.w3.org/2000/svg" p-id="7879" xmlns:xlink="http://www.w3.org/1999/xlink" width="300" height="300"><defs><style type="text/css"></style></defs><path d="M478 781c0.4 0.6 0.9 1.2 1.4 1.8 3 3.6 18.9 12.4 46.8 14.9 18.1 1.6 64.1 2 99.6-28.4 42.8-36.7 58.3-83.7 47.4-143.6l-2-11 8-7.8C820.5 469.4 797.8 295.5 783.3 231.7c-20.2-5-67-14.3-125.2-10.4-97.5 6.4-181.5 45-249.5 114.8l-7.8 8-11-2c-59.9-10.9-106.9 4.6-143.6 47.4-30.5 35.5-30 81.5-28.4 99.6 2.5 28 11.3 43.9 14.9 46.8 0.7 0.6 1.3 1 1.8 1.4l0.5-1.3 83.7-54.2-9.1 48.1c-5.2 27.6-9.7 61.9-8.8 74l111.4 111.4c10.7 1.3 43-2.9 72.6-9.5l50-11.1-55.4 85.6-1.4 0.7z" fill="#D6292C" p-id="7880"></path><path d="M540.3 840.3c-5.9 0-11.8-0.3-17.8-0.8-34.4-3-62.7-14.3-75.6-30.1-13.9-17-14.1-31.3-11.8-40.3 1.4-5.4 3.8-9.8 6.6-13.3-31.4 3.7-47.1 1.4-56.5-8.1L267.6 630.2c-7.9-7.9-11.3-19.3-6.9-57.5-3.7 3.2-8.4 6-14.4 7.5-9 2.3-23.2 2.1-40.3-11.8-15.8-12.9-27.1-41.2-30.1-75.6-4.4-49.5 9.6-97.1 38.3-130.6 44.3-51.7 102.1-72.9 172-63.2C459.5 227.4 552.3 186.1 655.3 179.4c87.2-5.7 151.3 15.2 152 15.5l10.9 3.6 3.2 12.8c13.1 50.5 17.7 105.1 13.2 158-3.9 46.3-14.7 90.6-32.2 131.6-20.1 47.1-49 90.2-86.1 128.2 9.7 69.9-11.5 127.7-63.2 172-29.3 25.3-69.8 39.2-112.8 39.2zM478 781c0.4 0.6 0.9 1.2 1.4 1.8 3 3.6 18.9 12.4 46.8 14.9 18.1 1.6 64.1 2 99.6-28.4 42.8-36.7 58.3-83.7 47.4-143.6l-2-11 8-7.8C820.5 469.4 797.8 295.5 783.3 231.7c-20.2-5-67-14.3-125.2-10.4-97.5 6.4-181.5 45-249.5 114.8l-7.8 8-11-2c-59.9-10.9-106.9 4.6-143.6 47.4-30.5 35.5-30 81.5-28.4 99.6 2.5 28 11.3 43.9 14.9 46.8 0.7 0.6 1.3 1 1.8 1.4l0.5-1.3 83.7-54.2-9.1 48.1c-5.2 27.6-9.7 61.9-8.8 74l111.4 111.4c10.7 1.3 43-2.9 72.6-9.5l50-11.1-55.4 85.6-1.4 0.7z" fill="#E67F80" p-id="7881"></path><path d="M124.7 776.5c-5.4 0-10.7-2-14.8-6.1-8.2-8.2-8.2-21.5 0-29.7l89.9-89.9c8.2-8.2 21.5-8.2 29.7 0s8.2 21.5 0 29.7l-89.9 89.9c-4.2 4.1-9.6 6.1-14.9 6.1zM170.2 865.1c-5.4 0-10.7-2-14.8-6.1-8.2-8.2-8.2-21.5 0-29.7l111.4-111.4c8.2-8.2 21.5-8.2 29.7 0s8.2 21.5 0 29.7L185.1 858.9c-4.1 4.1-9.5 6.2-14.9 6.2zM286.7 882.8c-5.4 0-10.7-2-14.8-6.1-8.2-8.2-8.2-21.5 0-29.7l62-62c8.2-8.2 21.5-8.2 29.7 0s8.2 21.5 0 29.7l-62 62c-4.2 4.1-9.6 6.1-14.9 6.1z" fill="#D6292C" p-id="7882"></path><path d="M610.8 517.5c-30.1 0-58.5-11.7-79.8-33.1-21.3-21.3-33.1-49.7-33.1-79.8s11.7-58.5 33.1-79.8c21.3-21.3 49.7-33.1 79.8-33.1s58.5 11.7 79.8 33.1c21.3 21.3 33.1 49.7 33.1 79.8s-11.7 58.5-33.1 79.8c-21.3 21.4-49.6 33.1-79.8 33.1z m0-183.8c-18.9 0-36.7 7.4-50.1 20.8-13.4 13.4-20.8 31.2-20.8 50.1s7.4 36.7 20.8 50.1c13.4 13.4 31.2 20.8 50.1 20.8s36.7-7.4 50.1-20.8c13.4-13.4 20.8-31.2 20.8-50.1s-7.4-36.7-20.8-50.1-31.1-20.8-50.1-20.8z" fill="#FFFFFF" p-id="7883"></path><path d="M247 245.1c-5.4 0-10.7-2-14.8-6.1-8.2-8.2-8.2-21.5 0-29.7l89.9-89.9c8.2-8.2 21.5-8.2 29.7 0s8.2 21.5 0 29.7L261.9 239c-4.1 4-9.5 6.1-14.9 6.1z" fill="#D6292C" p-id="7884"></path><path d="M815.3 638.4c-5.4 0-10.7-2-14.8-6.1-8.2-8.2-8.2-21.5 0-29.7l89.9-89.9c8.2-8.2 21.5-8.2 29.7 0s8.2 21.5 0 29.7l-89.9 89.9c-4.2 4.1-9.7 6.1-14.9 6.1z" fill="#D6292C" p-id="7885"></path><path d="M785.5 879.6c-5.4 0-10.7-2-14.8-6.1-8.2-8.2-8.2-21.5 0-29.7l89.9-89.9c8.2-8.2 21.5-8.2 29.7 0s8.2 21.5 0 29.7l-89.9 89.9c-4.1 4.1-9.6 6.1-14.9 6.1z" fill="#D6292C" p-id="7886"></path></svg>